<?xml version="1.0" encoding="utf-8"?>
<svg version="1.1" xmlns="http://www.w3.org/2000/svg" xmlns:xlink="http://www.w3.org/1999/xlink" x="0px" y="0px" width="480px"
	 height="20px" viewBox="0 0 480 20" style="enable-background:new 0 0 480 20;" xml:space="preserve">
<g id="Layer_1">
	<g id="eye-open" transform="translate(1468.000000, 5.000000)">
		<path id="path6686" d="M-1453.6,4c0,1.3-1.1,2.4-2.4,2.4c-1.3,0-2.4-1.1-2.4-2.4s1.1-2.4,2.4-2.4C-1454.7,1.6-1453.6,2.7-1453.6,4
			L-1453.6,4z M-1456-1c-1.4,0-2.8,0.4-4.1,1c-1,0.5-2,1.2-2.8,2.1c-0.4,0.5-0.9,1.1-1,1.8c0,0.6,0.6,1.4,1,1.8
			c0.8,0.9,1.7,1.6,2.8,2.1c1.3,0.6,2.6,1,4.1,1c1.4,0,2.8-0.4,4.1-1c1-0.5,2-1.2,2.8-2.1c0.4-0.5,0.9-1.1,1-1.8
			c0-0.6-0.6-1.4-1-1.8c-0.8-0.9-1.7-1.6-2.8-2.1C-1453.1-0.6-1454.5-1-1456-1z M-1456,0.2c2.1,0,3.8,1.7,3.8,3.8s-1.7,3.8-3.8,3.8
			c-2.1,0-3.8-1.7-3.8-3.8S-1458.1,0.2-1456,0.2z"/>
	</g>
	<g id="eye-close" transform="translate(1492.000000, 3.000000)">
		<path id="path6596" d="M-1455.1,1.6c-0.3,0-0.6-0.1-0.9-0.1c-1.4,0-2.8,0.4-4.1,1c-1,0.5-2,1.2-2.8,2.1c-0.4,0.5-0.9,1.1-1,1.8
			c0,0.6,0.6,1.4,1,1.8c0.8,0.9,1.7,1.6,2.8,2.1c0,0,0.1,0,0.1,0.1l-1,1.8l1.4,0.8l7.4-13.3l-1.3-0.8L-1455.1,1.6z M-1452,2.5
			l-1,1.8c0.5,0.6,0.7,1.4,0.7,2.2c0,2.1-1.7,3.8-3.8,3.8c-0.1,0-0.2,0-0.3,0l-0.7,1.2c0.3,0,0.6,0.1,0.9,0.1c1.4,0,2.8-0.4,4.1-1
			c1-0.5,2-1.2,2.8-2.1c0.4-0.5,0.9-1.1,1-1.8c0-0.6-0.6-1.4-1-1.8c-0.8-0.9-1.7-1.6-2.8-2.1C-1451.9,2.5-1451.9,2.5-1452,2.5z
			 M-1456,2.7c0.1,0,0.2,0,0.3,0l-0.8,1.4c-1.1,0.2-1.9,1.2-1.9,2.3c0,0.3,0.1,0.6,0.1,0.8v0l-0.8,1.4c-0.5-0.6-0.7-1.4-0.7-2.2
			C-1459.8,4.4-1458.1,2.7-1456,2.7L-1456,2.7z M-1453.7,5.7l-1.7,3.2c1.1-0.2,1.9-1.2,1.9-2.3C-1453.6,6.2-1453.7,5.9-1453.7,5.7z"
			/>
	</g>
	<g id="user1">
		<path style="fill:#FFFFFF;" d="M60,1c-5,0-9,4-9,9c0,5,4,9,9,9s9-4,9-9C69,5,65,1,60,1z M65.1,16.1c-0.3-1.5-1.4-2.7-2.9-3.2
			c-0.7,0.4-1.4,0.7-2.3,0.7c-0.8,0-1.6-0.2-2.3-0.6c-1.4,0.5-2.5,1.7-2.9,3.2C53.1,14.6,52,12.5,52,10c0-4.4,3.6-8,8-8s8,3.6,8,8
			C68,12.5,66.9,14.6,65.1,16.1z"/>
		<path style="fill:#FFFFFF;" d="M59.9,5c-1.8,0-3.3,1.6-3.3,3.4v0.9c0,1.9,1.5,3.4,3.4,3.3c1.8,0,3.3-1.6,3.3-3.4V8.4
			C63.3,6.5,61.8,5,59.9,5z"/>
	</g>
	<g id="user2_1_">
		<g>
			<path style="fill:#FFFFFF;" d="M84,1c-5,0-9,4-9,9c0,5,4,9,9,9s9-4,9-9C93,5,89,1,84,1z M80.6,8.4c0-1.8,1.4-3.3,3.3-3.4
				c1.9-0.1,3.4,1.5,3.4,3.3v0.9c0,1.8-1.4,3.3-3.3,3.4c-1.9,0.1-3.4-1.5-3.4-3.3V8.4z M84,18c-2,0-3.8-0.7-5.1-1.9
				c0.3-1.5,1.4-2.7,2.9-3.2c0.7,0.4,1.4,0.6,2.3,0.6c0.8,0,1.6-0.2,2.3-0.7c1.5,0.5,2.6,1.7,2.9,3.2C87.8,17.3,86,18,84,18z"/>
		</g>
	</g>
	<g id="edit">
		<path style="fill:#2F2F37;" d="M101.6,14.2l0.1,0.1l-0.6,0.6l0.3,0.3l-1.4,2.4l0.4,0.4l2.4-1.4l0.3,0.3l0.6-0.6l0.1,0.1l11.8-11.8
			l-0.1-0.1L116,4l-2-2l-0.6,0.6l-0.1-0.1L101.6,14.2z"/>
	</g>
	<g id="hoja1">
		<g>
			<path style="fill:#FFFFFF;" d="M126.5,17 M138,2.5"/>
			<path d="M138,2h-11c-0.6,0-1,0.4-1,1v14c0,0.6,0.4,1,1,1h11c0.6,0,1-0.4,1-1V3C139,2.4,138.6,2,138,2L138,2z M127,17V3h11v14H127
				L127,17z"/>
		</g>
		<g>
			<rect x="129" y="5" style="fill:#FFFFFF;" width="7" height="1"/>
			<polygon points="136,5 129,5 129,6 136,6 136,5 			"/>
		</g>
		<g>
			<rect x="129" y="8" style="fill:#FFFFFF;" width="7" height="1"/>
			<polygon points="136,8 129,8 129,9 136,9 136,8 			"/>
		</g>
		<g>
			<rect x="129" y="11" style="fill:#FFFFFF;" width="7" height="1"/>
			<polygon points="136,11 129,11 129,12 136,12 136,11 			"/>
		</g>
		<g>
			<rect x="129" y="14" style="fill:#FFFFFF;" width="2" height="1"/>
			<polygon points="131,14 129,14 129,15 131,15 131,14 			"/>
		</g>
		<g>
			<rect x="132" y="14" style="fill:#FFFFFF;" width="1" height="1"/>
			<polygon points="133,14 132,14 132,15 133,15 133,14 			"/>
		</g>
	</g>
	<g id="hoja2">
		<g>
			<path style="fill:#FFFFFF;" d="M150.5,17 M162,2.5"/>
			<path style="fill:#FFFFFF;" d="M162,2h-11c-0.6,0-1,0.4-1,1v14c0,0.6,0.4,1,1,1h11c0.6,0,1-0.4,1-1V3C163,2.4,162.6,2,162,2
				L162,2z M151,17V3h11v14H151L151,17z"/>
		</g>
		<g>
			<rect x="153" y="5" style="fill:#FFFFFF;" width="7" height="1"/>
			<polygon style="fill:#FFFFFF;" points="160,5 153,5 153,6 160,6 160,5 			"/>
		</g>
		<g>
			<rect x="153" y="8" style="fill:#FFFFFF;" width="7" height="1"/>
			<polygon style="fill:#FFFFFF;" points="160,8 153,8 153,9 160,9 160,8 			"/>
		</g>
		<g>
			<rect x="153" y="11" style="fill:#FFFFFF;" width="7" height="1"/>
			<polygon style="fill:#FFFFFF;" points="160,11 153,11 153,12 160,12 160,11 			"/>
		</g>
		<g>
			<rect x="153" y="14" style="fill:#FFFFFF;" width="2" height="1"/>
			<polygon style="fill:#FFFFFF;" points="155,14 153,14 153,15 155,15 155,14 			"/>
		</g>
		<g>
			<rect x="156" y="14" style="fill:#FFFFFF;" width="1" height="1"/>
			<polygon style="fill:#FFFFFF;" points="157,14 156,14 156,15 157,15 157,14 			"/>
		</g>
	</g>
	<g id="close" transform="translate(243.000000, 1.000000)">
		<path id="batsu-copy" d="M-63,0c-5,0-9,4-9,9s4,9,9,9s9-4,9-9S-58,0-63,0L-63,0z M-63,1c4.4,0,8,3.6,8,8s-3.6,8-8,8s-8-3.6-8-8
			S-67.4,1-63,1z M-63,8l-2.9-2.9c-0.3-0.3-0.7-0.3-1,0c-0.3,0.3-0.3,0.7,0,0.9c0,0,1.6,1.6,2.9,2.9l-2.9,2.9c-0.3,0.3-0.3,0.7,0,1
			c0.3,0.3,0.7,0.3,1,0L-63,10l2.9,2.9c0.3,0.3,0.7,0.3,1,0c0.3-0.3,0.3-0.7,0-1L-62,9l2.9-2.9c0.3-0.3,0.3-0.7,0-1
			c-0.3-0.3-0.7-0.3-1,0L-63,8z"/>
	</g>
	<g id="lupa">
		<path d="M211.7,16.3l-4.8-4.8c0.7-1,1.1-2.2,1.1-3.5c0-3.3-2.7-6-6-6s-6,2.7-6,6s2.7,6,6,6c1.3,0,2.5-0.4,3.5-1.1l4.8,4.8
			c0.2,0.2,0.5,0.3,0.7,0.3s0.5-0.1,0.7-0.3C212.1,17.3,212.1,16.7,211.7,16.3z M204.4,12.3c-0.1,0-0.1,0.1-0.2,0.1
			c-0.2,0.1-0.3,0.2-0.5,0.2c-0.1,0-0.3,0.1-0.4,0.1c-0.1,0-0.3,0.1-0.4,0.1c-0.3,0.1-0.6,0.1-0.9,0.1c-2.8,0-5-2.2-5-5s2.2-5,5-5
			s5,2.2,5,5c0,0.3,0,0.6-0.1,0.9c0,0.1-0.1,0.3-0.1,0.4c0,0.1-0.1,0.3-0.1,0.4c-0.1,0.2-0.1,0.4-0.2,0.5c0,0.1-0.1,0.1-0.1,0.2
			C205.9,11.2,205.2,11.9,204.4,12.3z"/>
	</g>
	<g id="download">
		<path style="fill-rule:evenodd;clip-rule:evenodd;fill:#FFFFFF;" d="M219,13h1.5v4.7h16.1V13h1.5v6h-19V13z"/>
		<polygon style="fill-rule:evenodd;clip-rule:evenodd;fill:#FFFFFF;" points="230,7.6 230,1 229.9,1 227.1,1 227,1 227,7.6
			222,7.6 228.5,15 235,7.6 		"/>
	</g>
	<g id="collapse">
		<polygon points="255,10 249,15 249,5 		"/>
	</g>
	<g id="expand">
		<polygon points="276,13 271,7 281,7 		"/>
	</g>
	<g id="collapse-white">
		<polygon style="fill:#FFFFFF;" points="303,10 297,15 297,5 		"/>
	</g>
	<g id="expand-white">
		<polygon style="fill:#FFFFFF;" points="324,13 319,7 329,7 		"/>
	</g>
	<path id="info" style="fill:#2AABE4;" d="M348,2c-4.4,0-8,3.6-8,8s3.6,8,8,8s8-3.6,8-8S352.4,2,348,2z M348.7,14.4
		c0,0.4-0.3,0.7-0.7,0.7s-0.7-0.3-0.7-0.7V8.5c0-0.4,0.3-0.7,0.7-0.7s0.7,0.3,0.7,0.7V14.4z M348,7.1c-0.8,0-1.5-0.7-1.5-1.5
		s0.7-1.5,1.5-1.5s1.5,0.7,1.5,1.5S348.8,7.1,348,7.1z"/>
	<g id="checkbox">
		<path style="fill:#FFFFFF;" d="M368,17.5c-1.9,0-3.5-1.6-3.5-3.5V6c0-1.9,1.6-3.5,3.5-3.5h8c1.9,0,3.5,1.6,3.5,3.5v8
			c0,1.9-1.6,3.5-3.5,3.5H368z"/>
		<path style="fill:#BBB9C3;" d="M376,3c1.7,0,3,1.3,3,3v8c0,1.7-1.3,3-3,3h-8c-1.7,0-3-1.3-3-3V6c0-1.7,1.3-3,3-3H376 M376,2h-8
			c-2.2,0-4,1.8-4,4v8c0,2.2,1.8,4,4,4h8c2.2,0,4-1.8,4-4V6C380,3.8,378.2,2,376,2L376,2z"/>
	</g>
	<g id="checked">
		<g>
			<path style="fill:#2AABE4;" d="M400,18h-8c-2.2,0-4-1.8-4-4V6c0-2.2,1.8-4,4-4h8c2.2,0,4,1.8,4,4v8C404,16.2,402.2,18,400,18z"/>
		</g>
		<path style="fill:#FFFFFF;" d="M400.6,4.5c0.2,0,0.4,0,0.4,0.1c0.1,0,0.1,0.1,0.1,0.2c0,0.1-0.1,0.3-0.3,0.6
			c-2.6,3.1-5,6.4-7.2,9.9c-0.2,0.2-0.5,0.4-0.9,0.4c-0.5,0-0.8,0-0.9-0.1c-0.2-0.1-0.5-0.6-0.8-1.5c-0.3-1-0.5-1.7-0.5-1.9
			c0-0.3,0.2-0.6,0.7-0.8c0.3-0.2,0.5-0.2,0.8-0.2c0.3,0,0.5,0.2,0.6,0.6c0.3,0.8,0.5,1.2,0.6,1.2c0.1,0,0.2-0.1,0.3-0.2
			c1.9-3,3.6-5.5,5.2-7.3C399.1,4.7,399.7,4.5,400.6,4.5L400.6,4.5z"/>
	</g>
	<path d="M425.1,4c0.2,0,0.4,0,0.5,0.1c0.1,0,0.1,0.1,0.1,0.2c0,0.1-0.1,0.3-0.4,0.6c-2.8,3.4-5.5,7-7.9,10.8
		c-0.2,0.3-0.5,0.4-1,0.4c-0.5,0-0.8,0-0.9-0.1c-0.2-0.1-0.5-0.7-0.9-1.7c-0.4-1.1-0.6-1.8-0.6-2.1c0-0.3,0.3-0.6,0.8-0.9
		c0.3-0.2,0.6-0.3,0.8-0.3c0.3,0,0.5,0.2,0.6,0.7c0.3,0.9,0.5,1.3,0.6,1.3c0.1,0,0.2-0.1,0.3-0.2c2.1-3.3,4-6,5.7-8
		C423.3,4.3,424.1,4,425.1,4L425.1,4z"/>
	<path d="M444,8.6l-4.3-4.3c-0.4-0.4-1-0.4-1.4,0c-0.4,0.4-0.4,1,0,1.4c0,0,2.4,2.4,4.3,4.3l-4.3,4.3c-0.4,0.4-0.4,1,0,1.4
		c0.4,0.4,1,0.4,1.4,0l4.3-4.3l4.3,4.3c0.4,0.4,1,0.4,1.4,0c0.4-0.4,0.4-1,0-1.4l-4.3-4.3l4.3-4.3c0.4-0.4,0.4-1,0-1.4
		c-0.4-0.4-1-0.4-1.4,0L444,8.6z"/>
	<g>
		<polygon style="fill:#FFFFFF;" points="474,9 469,9 469,4 467,4 467,9 462,9 462,11 467,11 467,16 469,16 469,11 474,11 		"/>
	</g>
</g>
</svg>
