<?xml version="1.0" encoding="utf-8"?>
<!-- Generator: Adobe Illustrator 21.0.0, SVG Export Plug-In . SVG Version: 6.00 Build 0)  -->
<svg version="1.1" id="Layer_1" xmlns:sketch="http://www.bohemiancoding.com/sketch/ns"
	 xmlns="http://www.w3.org/2000/svg" xmlns:xlink="http://www.w3.org/1999/xlink" x="0px" y="0px" width="172px" height="84px"
	 viewBox="0 0 172 84" style="enable-background:new 0 0 172 84;" xml:space="preserve">
<style type="text/css">
	.st0{fill:#5C6D79;stroke:#5C6D79;stroke-width:0.25;stroke-miterlimit:10;}
	.st1{fill:#5C6D79;}
	.st2{fill:#C44A2D;}
</style>
<title>starflex_logo_blue</title>
<desc>Created with Sketch.</desc>
<g id="STARflex-XL-Copy-_x2B_-Path-_x2B_-Path-Copy" transform="translate(115.000000, 67.000000)" sketch:type="MSShapeGroup">
	<path id="STARflex-XL-Copy" class="st0" d="M4.6,3.7c0-0.5-0.2-0.9-0.6-1.1S3,2,2.1,1.7c-0.9-0.3-1.6-0.7-2.2-1s-0.7-0.9-0.7-1.6
		s0.2-1.3,0.8-1.7s1.3-0.7,2.2-0.7c0.9,0,1.7,0.2,2.2,0.8C5-2,5.2-1.4,5.2-0.7l0,0H4.5c0-0.6-0.2-1.1-0.7-1.5S2.9-2.6,2.2-2.6
		C1.5-2.6,1-2.4,0.5-2.2C0.1-1.8-0.1-1.5-0.1-1s0.2,0.8,0.6,1.1c0.3,0.3,1,0.6,2,0.8c0.9,0.3,1.6,0.7,2.2,1s0.8,0.9,0.8,1.6
		c0,0.7-0.3,1.3-0.9,1.7C4,5.8,3.2,6,2.2,6S0.5,5.8-0.1,5.3c-0.6-0.5-1-1.1-0.9-2l0,0h0.7C-0.3,4-0.1,4.6,0.5,5
		c0.6,0.3,1.1,0.5,1.8,0.5C3,5.4,3.6,5.3,4.1,5C4.5,4.6,4.6,4.2,4.6,3.7L4.6,3.7z M13.2-2.5h-3.1v8.4H9.4v-8.4H6.3v-0.6h6.9
		C13.2-3.1,13.2-2.5,13.2-2.5z M18.9,3.4h-4.1l-0.9,2.5H13l3.4-9h0.7l3.3,9h-0.8L18.9,3.4z M15.1,2.7h3.7l-1.8-4.8l0,0L15.1,2.7z
		 M22.7,1.9v4H22v-9h3c0.9,0,1.7,0.2,2.2,0.7c0.5,0.5,0.8,1,0.8,1.8c0,0.5-0.1,0.9-0.5,1.3c-0.3,0.3-0.7,0.7-1.1,0.8
		c0.6,0.1,0.9,0.3,1.1,0.8c0.2,0.5,0.3,0.8,0.3,1.4v0.8c0,0.2,0,0.6,0.1,0.8c0.1,0.2,0.2,0.5,0.3,0.6l0,0h-0.8
		c-0.1-0.1-0.2-0.3-0.3-0.6c-0.1-0.2-0.1-0.6-0.1-0.8V3.6c0-0.6-0.2-1-0.6-1.3c-0.3-0.2-0.6-0.5-1.3-0.5H22.7z M22.7,1.2h2.2
		c0.8,0,1.4-0.1,1.7-0.5c0.3-0.3,0.6-0.8,0.6-1.4s-0.2-1-0.6-1.4c-0.3-0.3-0.9-0.5-1.7-0.5h-2.3v3.7C22.6,1.2,22.7,1.2,22.7,1.2z
		 M30.6,5.9v-6.1h-1.1v-0.6h1.1v-1c0-0.7,0.1-1.1,0.5-1.6S31.9-4,32.5-4c0.1,0,0.2,0,0.5,0c0.2,0,0.2,0,0.5,0.1l-0.1,0.6
		c-0.1,0-0.2,0-0.3-0.1c-0.1-0.1-0.2,0-0.3,0c-0.5,0-0.7,0.1-0.9,0.3s-0.3,0.6-0.3,1v0.9h1.6v0.6h-1.6v6.4H30.6z M35.7,5.9H35v-9.7
		h0.7V5.9z M40.3,6c-0.8,0-1.5-0.3-2.1-0.9c-0.6-0.6-0.8-1.4-0.8-2.3V2.4c0-0.9,0.2-1.7,0.8-2.4c0.6-0.7,1.3-0.9,2-0.9
		c0.8,0,1.5,0.2,2,0.8c0.5,0.6,0.7,1.3,0.7,2.1v0.6h-4.7v0.2c0,0.8,0.2,1.4,0.6,1.8s0.9,0.8,1.6,0.8c0.5,0,0.8-0.1,1.1-0.2
		c0.3-0.1,0.6-0.3,0.8-0.6l0.3,0.5c-0.2,0.2-0.6,0.5-0.9,0.6C41.3,5.8,40.7,6,40.3,6L40.3,6z M40.2-0.3c-0.6,0-1,0.2-1.4,0.6
		c-0.3,0.5-0.6,0.9-0.7,1.6l0,0H42V1.7c0-0.6-0.1-1-0.5-1.5C41.2-0.2,40.7-0.3,40.2-0.3L40.2-0.3z M46.4,2l1.8-2.8h0.9l-2.3,3.3
		L49.3,6h-0.9l-2-2.9l-2,2.8h-0.9l2.4-3.4l-2.3-3.3h0.9L46.4,2z"/>
</g>
<g>
	<path class="st1" d="M90.3,22.2c0,0.8,0,10.8,0,11.6c0,4.9,0.1,9.7,0,14.5c-0.1,3.6-2.2,7.1-5.8,8c-1.7,0.4-3.4,0.3-5.1,0.3
		c-4,0-16,0-20,0v6c2.6,0,13.1,0,15.7,0c5.1,0,10.5,0.6,14.9-2.3c3.6-2.4,6-6.3,6.3-10.7c0.1-1.6,0-3,0-4.6c0-4.7,0-18.3,0-22.9
		C96.4,22.2,90.3,22.2,90.3,22.2z"/>
	<rect x="54.3" y="56.6" class="st2" width="2.2" height="6"/>
	<rect x="102.8" y="17" class="st1" width="5.9" height="2.2"/>
	<path class="st1" d="M44.8,62.6V36.1c0-2.2-0.5-4-1.5-5.4c-1-1.6-2.7-2.4-4.8-2.4s-3.8,0.8-5.2,2.4c-1.2,1.5-1.9,3.4-1.9,5.5v16.6
		H25V36.2c0-2.2-0.6-4.1-1.7-5.6c-1.2-1.7-2.9-2.5-5-2.5s-3.8,0.8-5.1,2.5c-1.1,1.5-1.8,3.4-1.8,5.6v16.6H5V22.2h6l0.7,5.1l0.7-1.3
		c0.7-1.3,1.8-2.3,3.3-3C17,22.3,18.6,22,20,22c1.9,0,3.5,0.4,5,1.2c1.6,0.9,2.8,2.3,3.5,4.1l0.3,0.8l0.5-0.8c1.2-2,2.7-3.3,4.4-4.1
		c1.5-0.7,3.2-1.1,5.3-1.1c4,0,7.2,1.2,9.2,3.6s3.1,5.8,3.1,10.3v26.7H44.8z"/>
	<rect x="102.7" y="22.2" class="st1" width="5.9" height="30.6"/>
	<g>
		<path class="st2" d="M127.8,28.9l-4.8-6.7h-7.4l7.2,10C123.9,30.5,125.7,29.3,127.8,28.9z"/>
		<path class="st2" d="M122.4,41l-8.6,11.8h7.3l5.9-8.1C125,44,123.3,42.7,122.4,41z"/>
		<path class="st2" d="M136,32.1l7.2-10h-7.3l-4.9,6.7C133.1,29.3,134.8,30.5,136,32.1z"/>
		<path class="st2" d="M145,52.8l-8.5-11.9c-1,1.8-2.7,3.1-4.7,3.7l5.9,8.1L145,52.8L145,52.8z"/>
	</g>
	<path class="st1" d="M71.7,23.3c-7.5,0-13.5,6-13.5,13.5s6,13.5,13.5,13.5c7.5,0,13.5-6,13.5-13.5S79.1,23.3,71.7,23.3z M71.7,44.7
		c-4.4,0-7.9-3.5-7.9-7.9s3.5-7.9,7.9-7.9s7.9,3.5,7.9,7.9S76,44.7,71.7,44.7z"/>
</g>
</svg>
