<?xml version="1.0" encoding="utf-8"?>
<!-- Generator: Adobe Illustrator 21.0.0, SVG Export Plug-In . SVG Version: 6.00 Build 0)  -->
<svg version="1.1" id="Layer_1" xmlns:sketch="http://www.bohemiancoding.com/sketch/ns"
	 xmlns="http://www.w3.org/2000/svg" xmlns:xlink="http://www.w3.org/1999/xlink" x="0px" y="0px" width="172px" height="84px"
	 viewBox="0 0 172 84" style="enable-background:new 0 0 172 84;" xml:space="preserve">
<style type="text/css">
	.st0{fill:#FFFFFF;stroke:#FFFFFF;stroke-width:0.5;stroke-miterlimit:10;}
	.st1{fill:#FFFFFF;}
	.st2{fill:#C44A2D;}
</style>
<title>starflex_logo</title>
<desc>Created with Sketch.</desc>
<g id="STARflex-XL-Copy-_x2B_-Path-_x2B_-Path-Copy" transform="translate(115.000000, 67.000000)" sketch:type="MSShapeGroup">
	<path id="STARflex-XL-Copy" class="st0" d="M5.6,6.7c0-0.5-0.2-0.9-0.6-1.1C4.7,5.3,4,5,3.1,4.7c-0.9-0.3-1.6-0.7-2.2-1
		S0.2,2.8,0.2,2.1s0.2-1.3,0.8-1.7s1.3-0.7,2.2-0.7c0.9,0,1.7,0.2,2.2,0.8C6,1,6.2,1.6,6.2,2.3l0,0H5.5c0-0.6-0.2-1.1-0.7-1.5
		S3.9,0.4,3.2,0.4C2.5,0.4,2,0.6,1.5,0.8C1.1,1.2,0.9,1.5,0.9,2s0.2,0.8,0.6,1.1c0.3,0.3,1,0.6,2,0.8c0.9,0.3,1.6,0.7,2.2,1
		s0.8,0.9,0.8,1.6c0,0.7-0.3,1.3-0.9,1.7C5,8.8,4.2,9,3.2,9S1.5,8.8,0.9,8.3c-0.6-0.5-1-1.1-0.9-2l0,0h0.7C0.7,7,0.9,7.6,1.5,8
		c0.6,0.3,1.1,0.5,1.8,0.5C4,8.4,4.6,8.3,5.1,8C5.5,7.6,5.6,7.2,5.6,6.7L5.6,6.7z M14.2,0.5h-3.1v8.4h-0.7V0.5H7.3v-0.6h6.9
		C14.2-0.1,14.2,0.5,14.2,0.5z M19.9,6.4h-4.1l-0.9,2.5H14l3.4-9h0.7l3.3,9h-0.8L19.9,6.4z M16.1,5.7h3.7l-1.8-4.8l0,0L16.1,5.7z
		 M23.7,4.9v4H23v-9h3c0.9,0,1.7,0.2,2.2,0.7c0.5,0.5,0.8,1,0.8,1.8c0,0.5-0.1,0.9-0.5,1.3c-0.3,0.3-0.7,0.7-1.1,0.8
		c0.6,0.1,0.9,0.3,1.1,0.8c0.2,0.5,0.3,0.8,0.3,1.4v0.8c0,0.2,0,0.6,0.1,0.8c0.1,0.2,0.2,0.5,0.3,0.6l0,0h-0.8
		c-0.1-0.1-0.2-0.3-0.3-0.6c-0.1-0.2-0.1-0.6-0.1-0.8V6.6c0-0.6-0.2-1-0.6-1.3c-0.3-0.2-0.6-0.5-1.3-0.5H23.7z M23.7,4.2h2.2
		c0.8,0,1.4-0.1,1.7-0.5c0.3-0.3,0.6-0.8,0.6-1.4s-0.2-1-0.6-1.4c-0.3-0.3-0.9-0.5-1.7-0.5h-2.3v3.7C23.6,4.2,23.7,4.2,23.7,4.2z
		 M31.6,8.9V2.8h-1.1V2.2h1.1v-1c0-0.7,0.1-1.1,0.5-1.6C32.4-0.9,32.9-1,33.5-1c0.1,0,0.2,0,0.5,0c0.2,0,0.2,0,0.5,0.1l-0.1,0.6
		c-0.1,0-0.2,0-0.3-0.1c-0.1-0.1-0.2,0-0.3,0c-0.5,0-0.7,0.1-0.9,0.3c-0.2,0.2-0.3,0.6-0.3,1v0.9h1.6v0.6h-1.6v6.4H31.6z M36.1,8.9
		h-0.7v-9.7h0.7V8.9z M40.9,9c-0.8,0-1.5-0.3-2.1-0.9C38.2,7.5,38,6.7,38,5.8V5.4c0-0.9,0.2-1.7,0.8-2.4c0.6-0.7,1.3-0.9,2-0.9
		c0.8,0,1.5,0.2,2,0.8c0.5,0.6,0.7,1.3,0.7,2.1v0.6h-4.7v0.2c0,0.8,0.2,1.4,0.6,1.8s0.9,0.8,1.6,0.8c0.5,0,0.8-0.1,1.1-0.2
		c0.3-0.1,0.6-0.3,0.8-0.6l0.3,0.5c-0.2,0.2-0.6,0.5-0.9,0.6C41.9,8.8,41.3,9,40.9,9L40.9,9z M40.8,2.7c-0.6,0-1,0.2-1.4,0.6
		c-0.3,0.5-0.6,0.9-0.7,1.6l0,0h3.9V4.7c0-0.6-0.1-1-0.5-1.5C41.8,2.8,41.3,2.7,40.8,2.7L40.8,2.7z M47,5l1.8-2.8h0.9l-2.3,3.3
		L49.8,9h-0.9l-2-2.9l-2,2.8h-0.9l2.4-3.4l-2.3-3.3h0.9L47,5z"/>
</g>
<g>
	<path class="st1" d="M91.3,25.2c0,0.8,0,10.8,0,11.6c0,4.9,0.1,9.7,0,14.5c-0.1,3.6-2.2,7.1-5.8,8c-1.7,0.4-3.4,0.3-5.1,0.3
		c-4,0-16,0-20,0v6c2.6,0,13.1,0,15.7,0c5.1,0,10.5,0.6,14.9-2.3c3.6-2.4,6-6.3,6.3-10.7c0.1-1.6,0-3,0-4.6c0-4.7,0-18.3,0-22.9
		C97.4,25.2,91.3,25.2,91.3,25.2z"/>
	<rect x="55.3" y="59.6" class="st2" width="2.2" height="6"/>
	<rect x="103.8" y="20" class="st1" width="5.9" height="2.2"/>
	<path class="st1" d="M45.8,65.6V39.1c0-2.2-0.5-4-1.5-5.4c-1-1.6-2.7-2.4-4.8-2.4s-3.8,0.8-5.2,2.4c-1.2,1.5-1.9,3.4-1.9,5.5v16.6
		H26V39.2c0-2.2-0.6-4.1-1.7-5.6c-1.2-1.7-2.9-2.5-5-2.5s-3.8,0.8-5.1,2.5c-1.1,1.5-1.8,3.4-1.8,5.6v16.6H6V25.2h6l0.7,5.1l0.7-1.3
		c0.7-1.3,1.8-2.3,3.3-3C18,25.3,19.6,25,21,25c1.9,0,3.5,0.4,5,1.2c1.6,0.9,2.8,2.3,3.5,4.1l0.3,0.8l0.5-0.8c1.2-2,2.7-3.3,4.4-4.1
		c1.5-0.7,3.2-1.1,5.3-1.1c4,0,7.2,1.2,9.2,3.6s3.1,5.8,3.1,10.3v26.7H45.8z"/>
	<rect x="103.7" y="25.2" class="st1" width="5.9" height="30.6"/>
	<g>
		<path class="st2" d="M128.8,31.9l-4.8-6.7h-7.4l7.2,10C124.9,33.5,126.7,32.3,128.8,31.9z"/>
		<path class="st2" d="M123.4,44l-8.6,11.8h7.3l5.9-8.1C126,47,124.3,45.7,123.4,44z"/>
		<path class="st2" d="M137,35.1l7.2-10h-7.3l-4.9,6.7C134.1,32.3,135.8,33.5,137,35.1z"/>
		<path class="st2" d="M146,55.8l-8.5-11.9c-1,1.8-2.7,3.1-4.7,3.7l5.9,8.1L146,55.8L146,55.8z"/>
	</g>
	<path class="st1" d="M72.7,26.3c-7.5,0-13.5,6-13.5,13.5s6,13.5,13.5,13.5c7.5,0,13.5-6,13.5-13.5S80.1,26.3,72.7,26.3z M72.7,47.7
		c-4.4,0-7.9-3.5-7.9-7.9s3.5-7.9,7.9-7.9s7.9,3.5,7.9,7.9S77,47.7,72.7,47.7z"/>
</g>
</svg>
